# xmcd
#
# Track frame offsets:
#	150
#	18630
#	31840
#	43944
#	55938
#	70075
#	86295
#	100836
#	118627
#	131538
#	142602
#	151144
#	162414
#	176585
#	191478
#	206870
#
# Disc length: 2890 seconds
# Revision: 1
# Processed by: cddbd v1.5.2PL0 Copyright (c) Steve Scherf et al.
# Submitted via: dBpowerAMP V12.0
#
DISCID=d20b4810
DTITLE=The Knuckle Knockers - The Knuckle Knockers
DYEAR=2010
DGENRE=Country
TTITLE0=Georgia Blues
TTITLE1=Shipping Port
TTITLE2=Little Black Train
TTITLE3=Stacker Lee
TTITLE4=The Cyclone of Rye Cove
TTITLE5=Christmas Time in the Morning
TTITLE6=Soldier Girl
TTITLE7=Can't Feel at Home
TTITLE8=Step in a Hole
TTITLE9=In the Pines
TTITLE10=Wildcat Rag
TTITLE11=Dinah
TTITLE12=Cannonball Blues
TTITLE13=Brushy Fork of John's Creek - Little Bobby
TTITLE14=All Night Long
TTITLE15=The Hometown Waltz
EXTD=
EXTT0=
EXTT1=
EXTT2=
EXTT3=
EXTT4=
EXTT5=
EXTT6=
EXTT7=
EXTT8=
EXTT9=
EXTT10=
EXTT11=
EXTT12=
EXTT13=
EXTT14=
EXTT15=
PLAYORDER=
